<svg xmlns="http://www.w3.org/2000/svg" x="0" y="0" viewBox="0 0 1000 1000">
  <path
    d="M6239.9 3449.5c-1580.3-223.9-2896.7-417.1-2921.6-430.5-24.9-13.4-57.4-51.7-72.7-84.2-26.8-55.5-21-116.7 74.6-795.9 57.4-403.7 103.3-734.7 99.5-736.6-1.9-1.9-114.8-26.8-252.6-57.4-296.6-63.1-610.3-162.6-723.2-227.7-112.9-67-262.1-271.7-577.8-797.8-344.4-568.2-876.3-1565.1-853.3-1593.8 55.5-72.7 1276.2-1557.4 1302.9-1586.1 30.6-32.5 38.3-32.5 218.1 24.9 390.3 126.3 608.4 252.6 885.9 522.3 285.1 275.5 493.6 610.3 771 1230.2 82.3 183.7 177.9 382.7 214.3 442 93.8 156.9 321.4 359.7 562.5 501.3C5082.4-71 5225.8 22.8 5287.1 70.6c369.3 292.7 428.6 830.4 109.1 991.1-153.1 78.4-373.1 49.7-635.2-82.3-220-109-367.3-223.8-685-533.8-417.1-407.5-510.9-464.9-1050.4-658.1-298.5-107.1-371.2-116.7-380.7-42.1-3.8 24.9 1.9 53.6 11.5 63.2 9.6 9.6 124.4 55.5 254.5 99.5 497.5 174.1 658.2 262.1 903.1 491.7l132 122.5-107.1 757.7c-59.3 417.1-107.1 771-107.1 788.3 0 19.1 26.8 38.3 72.7 49.7 243 67 424.8 310 424.8 570.2 0 45.9 5.7 82.3 15.3 82.3 7.7 0 440.1 61.2 960.5 133.9s960.5 133.9 975.8 132c15.3 0-13.4-17.2-67-38.3-51.7-21-147.3-76.5-212.4-122.4-673.5-482.1-702.2-1632-53.6-2225.1 200.9-185.6 476.4-308.1 696.4-311.9 47.8 0 76.5-3.8 67-9.6-11.5-3.8-229.6-38.3-484.1-74.6l-466.8-65.1-84.2-72.7C5331.1-92 5266-139.8 5061.3-262.3c-267.9-160.7-422.8-296.6-520.4-453.4-88-141.6-197.1-382.7-183.7-403.7 15.3-26.8 199 5.7 306.1 53.6 145.4 65 325.3 193.2 459.2 325.3 126.3 128.2 177.9 243 177.9 405.6 0 45.9 5.7 82.3 15.3 82.3 70.8-1.9 4425.4 621.8 4459.9 639 24.9 11.5 63.1 45.9 86.1 74.6l38.3 53.6-78.4 568.2c-45.9 311.9-147.3 1042.7-229.6 1620.6-143.5 1033.2-147.3 1054.2-199 1105.9-45.9 45.9-67 51.7-164.6 49.7-61.2-2-1406.2-185.7-2988.5-409.5zm2274.9-118.6c0-70.8 93.8-229.6 179.9-308 112.9-103.3 197.1-141.6 355.9-155l124.4-11.5 107.1-765.3c59.3-420.9 103.3-771 95.7-776.8-5.7-5.7-47.8-21-91.8-34.4-107.1-28.7-231.5-126.3-306.1-237.2-63.1-93.8-111-269.8-95.7-350.1 5.7-38.3-1.9-45.9-51.7-55.5-141.6-24.9-1827.2-258.3-1859.7-258.3-19.1 0 15.3 26.8 80.3 59.3C7474 648.6 7732.3 1102 7734.2 1632c1.9 451.5-132 788.3-436.2 1094.4-124.4 124.4-187.5 170.3-315.7 231.5-156.9 74.6-302.3 116.7-424.8 120.5-59.3 1.9 1800.4 279.4 1905.6 283.2 36.4 1.8 51.7-7.8 51.7-30.7zm-1936.3-717.5c13.4-13.4 23-44 23-70.8 0-78.4 21-91.8 158.8-101.4 72.7-5.7 141.6-21 153.1-32.5 13.4-13.4 13.4-55.5 1.9-130.1l-17.2-111h-204.7c-176 0-210.5-5.7-258.3-40.2-68.9-51.6-78.4-126.3-24.9-176 23-21.1 99.5-53.6 168.4-70.8 220-57.4 317.6-89.9 388.4-137.8 130.1-86.1 197.1-277.4 151.2-442-24.9-97.6-132-221.9-233.4-273.6L6810 989l13.4-112.9c11.5-109.1 11.5-114.8-36.3-132-70.8-26.8-200.9-32.5-223.9-9.6-11.5 11.5-26.8 57.4-34.4 105.2l-13.4 84.2-153.1 11.5c-225.8 19.1-225.8 19.1-210.5 158.8 7.7 63.1 21 124.4 28.7 133.9 9.6 9.6 53.6 7.7 103.3-5.7 172.2-42.1 378.8-17.2 453.4 57.4 26.8 26.8 36.4 57.4 32.5 99.5-7.6 84.2-89.9 133.9-308 183.7-273.6 63.1-386.5 147.3-434.3 327.2-45.9 168.4 55.5 371.2 229.6 459.2 68.9 36.3 70.8 38.3 57.4 124.4-13.4 93.7 3.8 133.9 67 149.2 76.6 17.2 174.2 13.3 197.1-9.6z"
    transform="matrix(.1 0 0 -.1 0 511)"
  ></path>
  <path
    d="M8428.7 2159.9c-109.1-47.8-151.2-181.8-88-281.3 82.3-133.9 279.3-120.5 338.6 23 34.5 82.3 24.9 139.7-36.3 208.6-46 53.6-149.3 78.4-214.3 49.7zM4475.8 1566.8c-122.4-124.4-38.3-327.2 135.8-327.2 63.1 0 91.8 11.5 135.8 55.5 122.5 124.4 38.3 327.2-135.8 327.2-63.1 0-91.7-11.5-135.8-55.5zM4921.6-1096.5c-195.2-128.2-325.3-174.1-503.2-176l-143.5-1.9-59.3-130.1-59.3-130.1h107.1c59.3 0 162.6 13.4 229.6 28.7 141.6 34.4 390.3 151.1 455.4 216.2 42.1 44 130.1 243 118.6 271.7-3.8 7.6-68.8-28.7-145.4-78.5zM622.5-1266.8c-21-7.7-143.5-103.3-271.7-208.6-199-164.5-235.3-204.7-246.8-262.1-7.7-38.3-3.8-86.1 7.7-111 23-51.7 1343.1-1664.6 1421.6-1739.2 42.1-38.3 76.5-51.7 132-51.7 67 0 101.4 21 315.7 193.2 132 107.1 248.7 210.5 258.3 229.6 11.5 19.1 19.1 67 19.1 107.2 0 68.9-49.7 133.9-719.4 949-426.7 520.4-738.5 883.9-765.3 895.4-57.5 21.2-99.5 21.2-151.2-1.8zM4778.1-1565.2c-151.2-78.4-363.5-124.4-545.3-118.6L4074-1680l-45.9-82.3c-26.8-45.9-44-88-38.3-97.6 17.2-26.8 271.7-40.2 401.8-19.1 174.1 28.7 317.6 99.5 409.4 202.8 68.9 78.5 111 162.6 82.3 160.7-7.6-1.9-55.4-22.9-105.2-49.7z"
    transform="matrix(.1 0 0 -.1 0 511)"
  ></path>
</svg>
